<svg width="512" height="512" viewBox="0 0 512 512" fill="none" xmlns="http://www.w3.org/2000/svg">
<path d="M256.809 130.766C258.11 126.258 262.054 118.954 264.536 114.303C283.131 79.4473 310.761 31.6633 354.891 28.0585C362.21 27.4606 372.111 31.5232 377.251 36.6036C384.43 43.6982 385.147 55.0216 385.108 64.5964C384.497 70.6492 383.981 77.3868 382.385 83.2549C372.701 118.865 347.511 150.464 319.492 173.686C315.63 176.886 308.053 182.705 303.705 184.835C303.408 185.071 303.107 185.302 302.803 185.528C293.326 192.534 286.243 185.653 288.588 175.271C290.027 171.927 293.231 168.678 296.018 166.413C308.518 156.256 320.569 145.766 330.703 133.172C332.248 131.253 335.212 127.294 336.932 125.769C339.19 121.974 342.624 117.468 345.106 113.422C355.096 97.1373 360.904 84.392 364.544 65.8334C364.727 61.0167 364.433 52.0349 357.258 52.6971C333.601 54.8805 321.383 74.7395 307.661 90.6171C289.847 117.215 275.755 146.125 265.776 176.542C264.503 180.399 261.677 188.344 260.846 192.079C259.241 197.14 254.191 212.132 254.176 216.931C260.37 214.332 387.415 212.994 393.383 215.616C395.671 216.621 397.858 218.385 399.714 220.032C407.886 227.29 415.451 235.699 423.173 243.458C430.393 250.712 438.23 257.759 444.962 265.439C446.373 267.046 448.427 269.311 449.064 271.377C450.836 277.127 450.134 291.346 450.204 297.997L450.385 363.876C450.39 370.235 450.857 388.951 450.289 394.665C450.46 398.984 450.786 405.219 449.802 409.32C447.673 417.302 443.341 422.895 436.091 427.037C426.14 432.389 415.381 431.234 404.401 431.214L373.291 431.134C355.806 431.088 338.16 431.485 320.697 430.732C307.043 430.139 295.116 419.365 293.884 405.618C293.071 396.552 293.565 386.713 293.588 377.474L293.602 326.227L293.43 267.05C293.399 258.246 292.914 243.253 293.731 234.971C282.583 235.894 257.968 237.543 246.145 239.89C245.686 239.981 245.462 241.725 245.301 242.443C244.222 246.851 243.275 250.695 241.889 255.025C237.638 273.517 233.845 285.711 226.697 310.394C216.372 346.045 199.533 396.184 178.32 428.382C178.203 428.447 178.086 428.518 177.969 428.588C177.11 430.556 175.957 432.128 174.771 433.895C159.498 456.342 139.873 477.554 112.12 483.092C87.4828 488.007 66.7855 472.508 62.8413 447.942C58.509 420.962 71.5736 395.079 86.786 373.543C94.7386 362.706 104.304 351.388 114.28 342.366C115.465 340.627 124.566 333.02 126.433 331.464C147.522 313.877 179.504 292.637 205.204 282.647C205.853 282.162 207.571 280.868 207.847 280.2C212.22 269.578 214.309 255.988 218.26 245.258C212.356 246.657 205.135 246.921 198.999 247.981C178.36 251.547 157.882 255.408 137.692 261.042C133.774 262.135 128.737 263.019 124.683 262.392C116.96 261.197 115.382 247.512 116.809 241.662L116.884 241.224C117.452 239.25 118.056 237.331 119.227 235.612C124.791 227.447 181.889 221.421 194.585 220.259C204.163 219.381 214.014 219.37 223.495 217.861C225.975 216.904 225.864 216.596 226.542 214.164C227.014 209.677 231.334 198.54 232.361 193.08C233.648 189.051 234.956 185.029 236.286 181.015C238.633 172.155 252.302 137.645 256.809 130.766ZM433.601 402.542C433.676 402.402 433.756 402.264 433.827 402.12C433.932 401.899 434.027 401.673 434.128 401.45C436.011 397.361 434.881 368.22 434.871 361.424L434.891 360.934C434.439 334.921 434.635 307.683 434.72 281.641C425.186 281.283 402.78 282.166 394.81 281.018C386.614 279.139 386.573 274.37 386.466 267.167C386.287 255.22 386.736 243.167 386.368 231.233L385.725 231.334C367.898 231.074 351.425 231.557 333.62 232.248C327.472 232.487 312.57 233.209 307.11 232.861C307.206 243.187 307.883 261.936 307.068 271.975L307.221 355.803C307.236 370.106 306.797 384.99 308.035 399.195C309.037 410.693 328.355 408.357 336.48 408.343L364.948 408.257C383.287 408.247 401.627 408.646 419.96 408.475C424.79 408.43 431.055 407.083 433.601 402.542ZM118.296 427.594C117.338 432.082 115.757 441.406 120.046 444.328C122.329 444.87 124.965 444.282 127.022 443.168C159.378 425.661 177.307 379.074 189.121 346.22C193.719 333.431 196.605 320.397 201.096 308.909C193.022 310.682 170.971 333.089 165.172 339.975C161.233 344.651 155.992 352.35 151.912 356.943C149.599 360.732 147.008 364.244 144.58 367.955C135.209 382.282 127.508 397.411 122.167 413.71C120.661 418.301 119.638 422.97 118.296 427.594Z" fill="url(#paint0_linear_39_165)"/>
<path d="M331.548 330.461C332.308 329.736 333.257 328.883 334.319 328.81C341.58 328.316 349.635 328.458 356.884 328.454C371.298 328.446 385.604 328.368 400 328.505C402.461 328.528 406.439 328.63 408.854 328.886C411.173 332.998 411.811 333.26 410.937 337.707C409.738 339.49 409.522 339.899 407.803 341.153C403.036 341.661 397.388 341.529 392.506 341.627C382.206 341.877 371.903 341.952 361.601 341.852C354.452 341.808 339.14 342.922 332.456 339.921C330.442 339.016 330.321 335.47 330.601 333.353L331.548 330.461Z" fill="#FF7DB1"/>
<path d="M333.98 359.826C358.228 359.219 382.801 359.829 407.059 359.797C412.393 359.789 414.567 373.508 405.753 371.526C402.623 371.418 395.704 372.452 393.064 372.173C381.232 370.919 340.049 374.908 332.146 369.82C330.035 366.289 330.424 362.124 333.98 359.826Z" fill="#4F90E4"/>
<path d="M334.593 297.092L380.964 296.915C386.333 296.907 404.011 295.908 409.281 298.383C412.369 299.831 411.836 305.733 408.839 309.022C384.948 309.778 359.84 308.32 335.826 308.83C334.27 308.863 333.096 308.694 331.974 307.669C331.004 305.493 330.791 301.779 331.348 299.489C332.389 297.856 332.7 297.871 334.593 297.092Z" fill="#50C158"/>
<defs>
<linearGradient id="paint0_linear_39_165" x1="256.285" y1="28" x2="256.285" y2="484" gradientUnits="userSpaceOnUse">
<stop stop-color="#FCA91E"/>
<stop offset="1" stop-color="#985203"/>
</linearGradient>
</defs>
</svg>
